<svg id="Layer_1" data-name="Layer 1" xmlns="http://www.w3.org/2000/svg" width="1200" height="1200" viewBox="0 0 1200 1200"><defs><style>.cls-1{fill:#1a72b9;}.cls-2{fill:#fff;}</style></defs><rect class="cls-1" width="1200" height="1200"/><g id="Layer_2" data-name="Layer 2"><g id="Layer_1-2" data-name="Layer 1-2"><path class="cls-2" d="M278.76,880.68a50.15,50.15,0,0,0,8.52-29.7,44.61,44.61,0,0,0-15.58-37.81A63,63,0,0,0,232,801.33h-61.9V962.74h41.75V900.63h0l38.85,62.11H302l-48.2-66.06A40.11,40.11,0,0,0,278.76,880.68ZM243,864.07a16.58,16.58,0,0,1-6.85,6.23,29.62,29.62,0,0,1-9.14,2.91,91.76,91.76,0,0,1-10.6.62h-4.36V833.74h9.56a21.44,21.44,0,0,1,5.19,0,29,29,0,0,1,9.14,2.91,16,16,0,0,1,6.86,6,20.06,20.06,0,0,1,2.7,10.8,17.76,17.76,0,0,1-2.7,10.6Z"/><polygon class="cls-2" points="315.11 962.74 405.27 962.74 405.27 927.22 357.07 927.22 357.07 899.59 402.77 899.59 402.77 864.07 357.07 864.07 357.07 837.06 405.27 837.06 405.27 801.54 315.11 801.54 315.11 962.74"/><polygon class="cls-2" points="548.6 900.21 548.18 900.21 474.86 801.54 433.1 801.54 433.1 962.74 474.86 962.74 474.86 864.07 475.48 864.07 548.6 962.74 590.35 962.74 590.35 801.54 548.6 801.54 548.6 900.21"/><path class="cls-2" d="M678.22,801.54H620.47v161.4h57.75a80.36,80.36,0,0,0,80-80.39v-.41a79.06,79.06,0,0,0-23.89-57.54A77.83,77.83,0,0,0,678.22,801.54Zm23.89,114.87a44.51,44.51,0,0,1-31.37,10.8H661.6V836.85h10a47.24,47.24,0,0,1,31.79,11.84,53,53,0,0,1-.63,67.52h-.62Z"/><polygon class="cls-2" points="779.59 962.74 869.75 962.74 869.75 927.22 821.35 927.22 821.35 899.59 867.25 899.59 867.25 864.07 821.35 864.07 821.35 837.06 869.75 837.06 869.75 801.54 779.59 801.54 779.59 962.74"/><path class="cls-2" d="M1005.81,880.68a51.85,51.85,0,0,0,8.72-29.7,45.36,45.36,0,0,0-15.78-37.81,63,63,0,0,0-39.68-11.84h-61.7V962.74h41.76V900.63h0L978,962.74h51.73l-49-66.06A39.53,39.53,0,0,0,1005.81,880.68Zm-35.73-16.61a16.61,16.61,0,0,1-6.86,6.23,29.45,29.45,0,0,1-9.14,2.91,91.72,91.72,0,0,1-10.59.62h-4.15V833.74h9.55a21.44,21.44,0,0,1,5.19,0,28.93,28.93,0,0,1,9.14,2.91,15.9,15.9,0,0,1,6.86,6,19.88,19.88,0,0,1,2.7,10.8A19.24,19.24,0,0,1,970.08,864.07Z"/><path class="cls-2" d="M466.34,681.68a169.54,169.54,0,0,0,39.47-113,170,170,0,0,0-39.47-113A134.93,134.93,0,0,0,314.49,417a107.16,107.16,0,0,0-40.92,30.12V244.83H172.41V719.9H273.57V686.25h1a97,97,0,0,0,38.84,32.61,109.51,109.51,0,0,0,48.61,11A133.71,133.71,0,0,0,466.34,681.68ZM301.4,617.08a68.23,68.23,0,0,1-17.24-47.78,71,71,0,0,1,17.24-47.78,61.71,61.71,0,0,1,47.78-20.35A64,64,0,0,1,398,521.31a77,77,0,0,1,0,95.56A61.35,61.35,0,0,1,349.18,637,60.4,60.4,0,0,1,301.4,617.08Z"/><rect class="cls-2" x="548.18" y="431.37" width="101.16" height="288.53"/><path class="cls-2" d="M868.09,405.4a162.06,162.06,0,0,0-52.56,8.73h0c-86,27.42-137.31-46.12-153.1-121.94h0a62.9,62.9,0,1,0-73.74,69.59h.62c47.78,11,155.18,69.59,132.74,135.65-38.63,80.59-4.77,177.4,75.82,216s177.4,4.78,216-75.82,4.78-177.4-75.82-216a159.89,159.89,0,0,0-70-16Zm-2.5,229.13a64.3,64.3,0,1,1,64.4-64.4,64.28,64.28,0,0,1-64.4,64.4Z"/></g></g></svg>