<?xml version="1.0" encoding="utf-8"?>
<!-- Generator: Adobe Illustrator 19.2.1, SVG Export Plug-In . SVG Version: 6.00 Build 0)  -->
<svg version="1.1" id="layer" xmlns="http://www.w3.org/2000/svg" xmlns:xlink="http://www.w3.org/1999/xlink" x="0px" y="0px"
	 viewBox="0 0 652 652" style="enable-background:new 0 0 652 652;" xml:space="preserve">
<style type="text/css">
	.st0{fill:#E65023;}
</style>
<path class="st0" d="M621.5,313.6c0,47,0,47,0,47c-16.8,0-16.8,0-16.8,0c0-40.6,0-40.6,0-40.6c0-1.1,0.4-11.2-10.8-11.2
	c-10.1,0-10.8,11.2-10.8,11.2c0,40.6,0,40.6,0,40.6c-7.8,0-11.2,0-17.1,0c0-95.8,0-95.8,0-95.8c17.1,0,17.1,0,17.1,0
	c0,34.3,0,34.3,0,34.3c5.2-4.1,10.1-7.5,19-7.1C602.1,291.7,621.5,292.8,621.5,313.6L621.5,313.6z M556.7,343.8
	c-12.3,0-12.3-8.6-12.3-8.6c0-24.6,0-24.6,0-24.6c12.3,0,12.3,0,12.3,0c0-17.9,0-17.9,0-17.9c-12.3,0-12.3,0-12.3,0
	c0-16.8,0-16.8,0-16.8c-18.3,0.4-18.3,0.4-18.3,0.4c0,58.5,0,58.5,0,58.5c0,18.3,9.3,25.3,30.6,25.3V343.8z M479.9,360.6
	c-5.2,0-14.9,0-18.3,0c0-3,0-3,0-3c0-40.2,0-40.2,0-40.2c0.4-15.7,9.7-22.4,17.1-25c9.3-3,23.1-2.6,30.9,6c5.2,5.2,7.8,11.6,8.2,19
	c0,43.2,0,43.2,0,43.2c-15.7,0-15.7,0-15.7,0c-2.6,0-2.6,0-2.6,0c0-43.2,0-43.2,0-43.2c-1.1-6-3.7-8.6-9.3-8.6s-9.7,1.9-10.8,8.6
	v43.2H479.9z M383,330c9.7,8.2,4.1,30.6-9.3,30.6c-34.3,0-34.3,0-34.3,0c0-17.1,0-17.1,0-17.1c21.2,0,21.2,0,21.2,0
	c4.1,0,5.6-4.1,2.6-7.1c-17.5-14.5-17.5-14.5-17.5-14.5c-7.8-6-6-14.9-6-14.9c1.1-8.2,5.2-14.2,15.3-14.2c28.7,0,28.7,0,28.7,0
	c0,15.7,0,15.7,0,15.7c-17.1-0.4-17.1-0.4-17.1-0.4c-3.7,0.4-4.1,4.1-1.9,6L383,330z M332.3,320.7c-1.1-10.8-8.2-20.9-17.1-26.1
	c-12.3-6-28.7-3.7-38.8,5.2c-10.1,7.5-13.4,23.5-9.7,36.5c1.9,9.7,9.7,17.9,19,22.4c11.6,4.5,26.1,3,35-5.6
	C329,345.3,334.2,334.1,332.3,320.7L332.3,320.7z M309.2,339c-4.1,4.1-8.6,5.2-14.2,3.7c-5.2-1.1-9.3-4.5-11.2-10.8
	c-1.5-5.6-1.1-12.7,2.6-16.4c3.7-4.1,7.8-6,11.6-6c5.6,0,9.3,1.1,12.3,4.5C316.7,320.7,316.3,332.3,309.2,339L309.2,339z M261.5,311
	c-5.2,0.4-10.8,0-14.2,4.1c-4.5,3.7-5.2,8.6-5.6,14.9c0.4,30.6,0.4,30.6,0.4,30.6c-18.3,0-18.3,0-18.3,0c0-36.1,0-36.1,0-36.1
	c0-31.7,0-31.7,0-31.7c17.1,0,17.1,0,17.1,0c-0.4,10.1-0.4,10.1-0.4,10.1c4.1-6,10.1-11.2,20.9-11.2V311z M212.7,292.8
	c0,17.1,0,17.1,0,17.1c-9.7,0-20.9-1.5-25,7.1c-2.6,4.5-3,10.1-1.1,16.8c4.5,10.1,14.2,8.6,25.3,9.3c0,17.1,0,17.1,0,17.1
	c-19,0-19,0-19,0c-11.6,0-23.5-12.7-26.1-25.3c-2.6-14.2-1.1-26.5,12.7-37.3c0,0,9.3-5.2,17.1-5.2h16V292.8z M140,360.6v-67.8h18.6
	v29.4v38.4H140z M50.6,291.3c-8.2,69.3-8.2,69.3-8.2,69.3s0.4,0,0,0c-20.9,0-20.9,0-20.9,0c3-25,3-25,3-25
	c8.2-62.6,8.2-62.6,8.2-62.6c1.5-5.2,3.7-8.2,7.8-9.3c6-1.9,14.2-1.5,19,1.9c5.6,4.1,8.2,19.8,8.2,19.8c7.8,30.6,7.8,30.6,7.8,30.6
	s1.1,1.1,1.5,0c2.6-9.7,2.6-9.7,2.6-9.7c8.2-33.2,8.2-33.2,8.2-33.2c0.7-5.6,5.6-9.3,10.4-10.4c4.5-1.1,10.8-1.1,14.9,2.6
	c3,2.6,5.6,6,6.7,13.8c7.8,55.2,7.8,55.2,7.8,55.2c2.6,19.8,2.6,19.8,2.6,19.8c1.1,6.7,1.1,6.7,1.1,6.7c-22,0-22,0-22,0
	c-8.6-69.3-8.6-69.3-8.6-69.3c-16.8,62.6-16.8,62.6-16.8,62.6c-1.5,4.5-4.1,6.7-8.6,6.7c-5.6,0-6.7-2.6-8.2-5.2L50.6,291.3z
	 M149.3,284.2c5.6,0,10.1-4.5,10.1-10.1c0-5.6-4.5-10.8-10.1-10.8c-6,0-10.8,5.2-10.8,10.8C138.5,279.4,143.4,284.2,149.3,284.2
	L149.3,284.2z M398.3,345.7c1.5,5.2,10.1,13.8,17.1,14.9v20.5h19v-20.5l0,0c8.6-3,18.3-10.1,18.3-25.3c0.4-22.4,0.4-22.4,0.4-22.4
	c0-19.8,0-19.8,0-19.8c-17.9,0-17.9,0-17.9,0c0,42.1,0,42.1,0,42.1c-1.5,10.1-10.1,9.3-10.1,9.3c-6-0.4-10.1-2.6-10.8-9.3
	c0-42.1,0-42.1,0-42.1c-17.9,0-17.9,0-17.9,0c0,42.1,0,42.1,0,42.1S396.8,342.7,398.3,345.7L398.3,345.7z"/>
</svg>
